<svg width="75" height="75" viewBox="0 0 75 75" fill="none" xmlns="http://www.w3.org/2000/svg">
<g id="ArrowRight">
<path id="Vector" d="M64.5048 39.3354L43.7725 60.0677C43.3403 60.5 42.754 60.7428 42.1427 60.7428C41.5314 60.7428 40.9452 60.5 40.5129 60.0677C40.0807 59.6355 39.8378 59.0492 39.8378 58.438C39.8378 57.8267 40.0807 57.2404 40.5129 56.8082L57.3147 40.0092H12.196C11.5851 40.0092 10.9992 39.7665 10.5672 39.3345C10.1352 38.9025 9.89246 38.3166 9.89246 37.7056C9.89246 37.0947 10.1352 36.5088 10.5672 36.0768C10.9992 35.6448 11.5851 35.4021 12.196 35.4021H57.3147L40.5129 18.6031C40.0807 18.1709 39.8378 17.5846 39.8378 16.9733C39.8378 16.362 40.0807 15.7758 40.5129 15.3435C40.9452 14.9113 41.5314 14.6685 42.1427 14.6685C42.754 14.6685 43.3403 14.9113 43.7725 15.3435L64.5048 36.0758C64.719 36.2898 64.8889 36.5439 65.0048 36.8235C65.1208 37.1032 65.1804 37.4029 65.1804 37.7056C65.1804 38.0084 65.1208 38.3081 65.0048 38.5878C64.8889 38.8674 64.719 39.1215 64.5048 39.3354Z" fill="#CAFF33"/>
</g>
</svg>
