<svg width="23" height="23" viewBox="0 0 23 23" fill="none" xmlns="http://www.w3.org/2000/svg">
<g id="Discord">
<path id="Subtract" fill-rule="evenodd" clip-rule="evenodd" d="M11.5 0C5.14873 0 0 5.14873 0 11.5C0 17.8513 5.14873 23 11.5 23C17.8513 23 23 17.8513 23 11.5C23 5.14873 17.8513 0 11.5 0ZM13.5556 6.22988C14.5828 6.40056 15.5653 6.69855 16.4815 7.10301C16.4895 7.10631 16.4963 7.1118 16.5002 7.11947C18.1236 9.41673 18.9253 12.0081 18.6256 14.9914C18.6245 15.004 18.6177 15.0155 18.6069 15.0232C17.3773 15.8919 16.1863 16.4193 15.0118 16.7689C14.993 16.7744 14.9727 16.7678 14.9613 16.7525C14.6899 16.3891 14.4434 16.0061 14.2276 15.6038C14.2151 15.5802 14.2264 15.5517 14.2519 15.5424C14.6434 15.4002 15.0157 15.2301 15.3738 15.0287C15.4021 15.0128 15.4038 14.9738 15.3778 14.9551C15.3019 14.9008 15.2265 14.8437 15.1545 14.7867C15.1409 14.7762 15.1228 14.774 15.1075 14.7812C12.7827 15.8146 10.2358 15.8146 7.88321 14.7812C7.8679 14.7746 7.84976 14.7768 7.83674 14.7872C7.76479 14.8443 7.68941 14.9008 7.61405 14.9551C7.588 14.9738 7.59026 15.0128 7.61859 15.0287C7.97669 15.2263 8.34896 15.4002 8.73992 15.5429C8.76541 15.5522 8.77731 15.5802 8.76484 15.6038C8.55351 16.0067 8.30703 16.3897 8.03052 16.753C8.01862 16.7678 7.9988 16.7744 7.98009 16.7689C6.81118 16.4193 5.62015 15.8919 4.3906 15.0232C4.3804 15.0155 4.37304 15.0035 4.3719 14.9908C4.12146 12.4104 4.63198 9.79759 6.49558 7.11893C6.50009 7.1118 6.50689 7.10631 6.51483 7.10301C7.43161 6.698 8.41411 6.40001 9.44081 6.22988C9.45952 6.22714 9.47821 6.23537 9.48784 6.25128C9.61477 6.4675 9.75982 6.74465 9.85785 6.97129C10.9401 6.81215 12.0393 6.81215 13.1442 6.97129C13.2422 6.74958 13.3822 6.4675 13.5085 6.25128C13.5182 6.23482 13.5369 6.22659 13.5556 6.22988ZM7.82427 12.0257C7.82427 12.794 8.40788 13.4196 9.11616 13.4196C9.83574 13.4196 10.408 12.794 10.408 12.0257C10.4194 11.2629 9.84141 10.6318 9.11616 10.6318C8.39656 10.6318 7.82427 11.2574 7.82427 12.0257ZM12.6008 12.0257C12.6008 12.794 13.1844 13.4196 13.8927 13.4196C14.618 13.4196 15.1846 12.794 15.1846 12.0257C15.1959 11.2629 14.618 10.6318 13.8927 10.6318C13.1731 10.6318 12.6008 11.2574 12.6008 12.0257Z" fill="black"/>
</g>
</svg>
