<svg xmlns="http://www.w3.org/2000/svg" width="65" height="64" viewBox="0 0 65 64" fill="none">
<path d="M19.0107 56.9629L15.8168 54.4634L15.681 54.3571H15.5087H3.10865C1.85693 54.3571 0.738281 53.1593 0.738281 51.4286V40.4571C0.738281 38.7264 1.85693 37.5286 3.10865 37.5286H16.8864C18.1382 37.5286 19.2568 38.7264 19.2568 40.4571V56.9143C19.2568 56.9313 19.2559 56.9476 19.2543 56.9629H19.0107ZM15.7365 53.9857L15.767 54.0105L18.2929 56.0677L19.1087 56.732V55.68V40.4571C19.1087 39.7888 18.8649 39.1614 18.4754 38.6962C18.0873 38.2326 17.5256 37.9 16.8864 37.9H3.10865C2.46944 37.9 1.90783 38.2326 1.51971 38.6962C1.13019 39.1614 0.886429 39.7888 0.886429 40.4571V51.4286C0.886429 52.0969 1.13019 52.7243 1.51971 53.1895C1.90783 53.6531 2.46944 53.9857 3.10865 53.9857H15.7365ZM37.4746 17.4348L34.1665 20.0236L34.1354 20.005C34.113 19.9916 34.0828 19.9621 34.0573 19.9163C34.0455 19.8953 34.0383 19.8769 34.0346 19.8649V3.42857C34.0346 1.69781 35.1532 0.5 36.4049 0.5H52.479C53.7307 0.5 54.8494 1.69781 54.8494 3.42857V14.4C54.8494 16.1308 53.7307 17.3286 52.479 17.3286H37.7827H37.6103L37.4746 17.4348ZM34.1827 18.6514V19.7035L34.9985 19.0391L37.5244 16.982L37.5549 16.9571H52.479C53.1182 16.9571 53.6798 16.6246 54.068 16.161C54.4575 15.6957 54.7012 15.0683 54.7012 14.4V3.42857C54.7012 2.76024 54.4575 2.13288 54.068 1.66761C53.6798 1.20401 53.1182 0.871428 52.479 0.871428H36.4049C35.7657 0.871428 35.2041 1.20401 34.816 1.66761C34.4265 2.13288 34.1827 2.76024 34.1827 3.42857V18.6514Z" fill="#CAFF33" stroke="#CAFF33"/>
<path d="M29.9605 37.7778C29.9605 37.8303 29.9498 37.8704 29.9354 37.9H29.9008C29.8989 37.9 29.897 37.9 29.8952 37.9L24.5273 33.0512L24.3846 32.9222H24.1922H5.27532C2.80162 32.9222 0.738281 30.7083 0.738281 27.8222V14.1333C0.738281 11.2472 2.80162 9.03333 5.27532 9.03333H25.4235C27.8972 9.03333 29.9605 11.2472 29.9605 14.1333V37.7778ZM24.4217 32.6778L29.0077 36.7815L29.8412 37.5273V36.4089V14.1333C29.8412 11.5439 27.8749 9.27777 25.4235 9.27777H5.27532C2.82392 9.27777 0.857623 11.5439 0.857623 14.1333V27.8222C0.857623 30.4117 2.82392 32.6778 5.27532 32.6778H24.4161C24.418 32.6778 24.4199 32.6778 24.4217 32.6778Z" fill="#CAFF33" stroke="#CAFF33"/>
<path d="M40.7861 43.2842H40.5932L40.4503 43.4137L34.8162 48.521C34.7577 48.5497 34.7253 48.5585 34.7105 48.5617C34.6927 48.5656 34.6803 48.5667 34.6208 48.5667H34.5573C34.5338 48.529 34.5164 48.476 34.5164 48.4064V27.2762C34.5164 24.2083 36.751 21.8334 39.4564 21.8334H58.7986C61.504 21.8334 63.7386 24.2083 63.7386 27.2762V37.8413C63.7386 40.9093 61.504 43.2842 58.7986 43.2842H40.7861ZM34.7252 46.9537V48.0591L35.5554 47.3292L40.5119 42.9711L40.5204 42.9636C40.5272 42.9635 40.5349 42.9635 40.5444 42.9635H58.7986C61.4123 42.9635 63.5297 40.5841 63.5297 37.8413V27.2762C63.5297 24.5334 61.4123 22.154 58.7986 22.154H39.4564C36.8426 22.154 34.7252 24.5334 34.7252 27.2762V46.9537Z" fill="#CAFF33" stroke="#CAFF33"/>
<path d="M40.8568 63.4657L40.8528 63.4685L40.789 63.4351C40.7628 63.4214 40.7365 63.3966 40.7169 63.3657C40.7131 63.3597 40.7101 63.3544 40.7078 63.3499V52.4191C40.7078 50.9668 41.7864 49.8714 43.1197 49.8714H52.4377C53.771 49.8714 54.8496 50.9668 54.8496 52.4191V58.5143C54.8496 59.9665 53.771 61.0619 52.4377 61.0619H44.5174H44.3624L44.2346 61.1496L40.8568 63.4657ZM40.8725 62.2933V63.2644L41.663 62.7003L44.2254 60.8718L44.2639 60.8443L44.2653 60.8429C44.2708 60.8429 44.2771 60.8429 44.2844 60.8429H52.4377C53.6668 60.8429 54.6848 59.744 54.6848 58.5143V52.4191C54.6848 51.1894 53.6668 50.0905 52.4377 50.0905H43.1197C41.8905 50.0905 40.8725 51.1894 40.8725 52.4191V62.2933ZM32.6369 61.0619C32.6282 61.0619 32.6211 61.0619 32.6148 61.0619L32.6065 61.055L29.8111 58.7388L29.6723 58.6238H29.4921H24.4837C23.1504 58.6238 22.0718 57.5284 22.0718 56.0762V49.981C22.0718 48.5287 23.1504 47.4333 24.4837 47.4333H30.3074C31.6407 47.4333 32.7193 48.5287 32.7193 49.981V60.9524C32.7193 60.9985 32.7089 61.0347 32.6938 61.0619H32.6369ZM23.9837 47.5305V47.714C22.9902 47.9616 22.2365 48.9229 22.2365 49.981V56.0762C22.2365 57.3059 23.2545 58.4048 24.4837 58.4048H29.725C29.7335 58.4048 29.7405 58.4048 29.7467 58.4048L29.762 58.417L31.7421 60.0018L32.5545 60.652V59.6114V49.8591C32.5545 48.6294 31.5366 47.5305 30.3074 47.5305H24.4837H23.9837Z" fill="#CAFF33" stroke="#CAFF33"/>
</svg>