<svg
    xmlns="http://www.w3.org/2000/svg"
    width="34"
    height="36"
    viewBox="0 0 34 36"
    fill="none"
  >
    <path
      d="M21.7122 36H5.3742C5.32755 35.9998 5.28164 35.989 5.24034 35.9684C5.19903 35.9479 5.16356 35.9182 5.1369 35.8819C5.11076 35.8451 5.09394 35.8032 5.08776 35.7593C5.08158 35.7154 5.08622 35.6707 5.10131 35.6287C5.29708 35.1056 5.65896 33.8737 5.80134 33.3337C6.37305 31.2175 6.46078 29.0099 6.05867 26.859C5.65655 24.7081 4.77387 22.6636 3.46988 20.8627C1.20961 17.5551 -1.66764 11.0749 4.4428 4.88164C8.80317 0.471522 14.5636 -0.186621 18.6273 0.0383853C22.2493 0.178261 25.7004 1.53625 28.3625 3.86912C29.5169 4.88695 30.4432 6.11478 31.0864 7.47938C31.7295 8.84399 32.0762 10.3174 32.1059 11.8118C32.1075 12.9552 31.8421 14.0848 31.3287 15.1194C31.1457 15.454 31.0501 15.8254 31.0501 16.2023C31.0501 16.5792 31.1457 16.9506 31.3287 17.2851C31.4711 17.5326 31.6491 17.8476 31.833 18.1233C32.972 19.9796 33.8204 21.459 33.5653 22.224C33.5369 22.3172 33.4877 22.4036 33.4212 22.4773C33.3547 22.551 33.2724 22.6104 33.1797 22.6515C32.6557 22.8677 32.1088 23.0299 31.5482 23.1353C31.5136 23.7658 31.5335 24.3979 31.6076 25.0253C31.6275 25.1684 31.6072 25.314 31.5489 25.4473C31.4906 25.5806 31.3962 25.697 31.2754 25.7847L30.7414 26.1222L30.9431 26.5554C31.0156 26.7366 31.0156 26.9367 30.9431 27.1179C30.7487 27.5551 30.4454 27.9411 30.0592 28.2429C29.9237 28.5227 29.9088 28.8416 30.0177 29.1317C30.2658 29.8312 30.2212 30.5944 29.8931 31.2636C29.761 31.4692 29.5851 31.6464 29.3767 31.7839C29.1684 31.9214 28.932 32.0163 28.6829 32.0624C27.7412 32.2112 26.7812 32.2245 25.8353 32.1018L25.242 32.0624C24.812 32.0251 24.3785 32.08 23.9739 32.2231C23.5693 32.3663 23.2038 32.594 22.9046 32.8893C22.5501 33.2494 22.283 33.6787 22.1221 34.1471C21.9612 34.6155 21.9104 35.1116 21.9732 35.6006C21.9854 35.6619 21.9854 35.7249 21.9732 35.7862C21.9595 35.8436 21.9267 35.8953 21.8798 35.9338C21.8328 35.9723 21.7741 35.9955 21.7122 36ZM5.77761 35.4375H21.4097C21.372 34.9006 21.4527 34.3622 21.6468 33.8567C21.8409 33.3511 22.144 32.8894 22.5368 32.5012C22.8963 32.1545 23.3304 31.8856 23.8096 31.7128C24.2888 31.54 24.8017 31.4673 25.3132 31.4999L25.9065 31.5449C26.79 31.6529 27.6854 31.6377 28.5642 31.4999C28.7392 31.4733 28.9063 31.412 29.0546 31.3199C29.2028 31.2278 29.3288 31.107 29.4244 30.9655C29.6741 30.4321 29.6996 29.8285 29.4956 29.2779C29.4178 29.0534 29.3919 28.8156 29.4195 28.5808C29.4471 28.3459 29.5277 28.1194 29.6558 27.9167C29.6668 27.8962 29.6832 27.8788 29.7033 27.866C30.0266 27.6251 30.2848 27.3146 30.4567 26.9604C30.4801 26.9044 30.4801 26.842 30.4567 26.786L30.1541 26.1391C30.126 26.0792 30.1213 26.0118 30.1408 25.9489C30.1604 25.886 30.203 25.8318 30.2609 25.796L30.9847 25.3403C31.0191 25.3087 31.0452 25.2698 31.0606 25.2268C31.0761 25.1837 31.0806 25.1378 31.0737 25.0928C30.9862 24.3588 30.9723 23.6186 31.0321 22.8821C31.0369 22.8208 31.0636 22.7628 31.1078 22.7178C31.152 22.6728 31.2111 22.6434 31.2754 22.6346C31.8597 22.5349 32.4306 22.3745 32.978 22.1565C32.9976 22.1486 33.0149 22.1363 33.0283 22.1206C33.0418 22.1049 33.051 22.0863 33.0551 22.0665C33.2509 21.4702 32.0762 19.552 31.3762 18.4101C31.1864 18.1008 31.0084 17.8083 30.8601 17.5551C30.6388 17.1441 30.5234 16.6891 30.5234 16.2276C30.5234 15.7661 30.6388 15.3111 30.8601 14.9C31.3175 13.9294 31.5424 12.8747 31.5186 11.8118C31.492 10.3903 31.163 8.98847 30.5513 7.69036C29.9397 6.39225 29.058 5.22456 27.9591 4.25725C25.3941 2.02014 22.0741 0.720245 18.5917 0.58965C14.6526 0.370269 9.09979 1.00591 4.86994 5.26415C-0.967609 11.1818 1.77319 17.3864 3.95634 20.5646C5.30724 22.4273 6.22169 24.5427 6.63818 26.7686C7.05466 28.9944 6.96351 31.279 6.37085 33.4687C6.24627 33.9243 5.98524 34.83 5.77761 35.4375Z"
      fill="#CAFF33"
    />
    <path
      d="M19.7634 20C19.7223 19.9994 19.6816 19.9905 19.644 19.9736L13.6323 16.8094C13.5724 16.7779 13.5273 16.7236 13.5068 16.6583C13.4864 16.593 13.4923 16.5222 13.5232 16.4614C13.538 16.4307 13.5588 16.4035 13.5843 16.3812C13.6097 16.3589 13.6393 16.3421 13.6713 16.3318C13.7033 16.3214 13.7371 16.3178 13.7705 16.321C13.8039 16.3242 13.8364 16.3343 13.8659 16.3506L19.8776 19.5148C19.9378 19.5473 19.983 19.6027 20.0034 19.6688C20.0238 19.7349 20.0178 19.8065 19.9866 19.8682C19.9644 19.9084 19.932 19.9418 19.8927 19.965C19.8535 19.9882 19.8088 20.0003 19.7634 20ZM20.6356 18.2702C20.5961 18.2782 20.5556 18.2782 20.5162 18.2702L14.7328 15.1904C14.6723 15.1589 14.6265 15.1043 14.6055 15.0385C14.5846 14.9728 14.5903 14.9012 14.6212 14.8397C14.6522 14.7782 14.706 14.7316 14.7707 14.7104C14.8355 14.6891 14.9059 14.6948 14.9665 14.7263L20.755 17.7798C20.8142 17.8133 20.8586 17.8686 20.8789 17.9344C20.8992 18.0001 20.8938 18.0712 20.864 18.1331C20.842 18.1751 20.8091 18.2101 20.7688 18.2343C20.7285 18.2585 20.6824 18.2709 20.6356 18.2702ZM13.7465 12.6854C13.6992 12.685 13.653 12.6716 13.6128 12.6465C13.5725 12.6214 13.5398 12.5856 13.518 12.543C13.502 12.513 13.4921 12.4801 13.4889 12.4461C13.4857 12.4121 13.4893 12.3779 13.4995 12.3454C13.5097 12.3129 13.5263 12.2828 13.5482 12.2569C13.5701 12.2311 13.5969 12.21 13.6271 12.1949L19.6388 9.03073C19.6683 9.01444 19.7008 9.00437 19.7342 9.00114C19.7676 8.99791 19.8014 9.00157 19.8334 9.01192C19.8654 9.02226 19.895 9.03907 19.9204 9.06133C19.9459 9.0836 19.9666 9.11086 19.9814 9.14148C20.0126 9.20311 20.0187 9.27473 19.9983 9.34085C19.9779 9.40698 19.9326 9.46228 19.8724 9.49481L13.8607 12.659C13.8254 12.6773 13.7861 12.6864 13.7465 12.6854ZM14.8471 14.2728C14.7894 14.2733 14.7333 14.2539 14.6879 14.2178C14.6425 14.1816 14.6105 14.1309 14.5972 14.0739C14.5839 14.0168 14.5901 13.9569 14.6148 13.904C14.6394 13.851 14.6811 13.8081 14.7328 13.7823L20.4954 10.7236C20.5257 10.7025 20.56 10.6882 20.5961 10.6816C20.6322 10.6751 20.6692 10.6763 20.7048 10.6853C20.7404 10.6943 20.7737 10.7109 20.8026 10.734C20.8314 10.757 20.8551 10.786 20.8721 10.819C20.8891 10.852 20.899 10.8883 20.9011 10.9255C20.9033 10.9627 20.8977 11 20.8847 11.0348C20.8716 11.0696 20.8515 11.1013 20.8256 11.1276C20.7996 11.154 20.7685 11.1744 20.7342 11.1877L14.9665 14.2411C14.9301 14.2621 14.8889 14.273 14.8471 14.2728Z"
      fill="#CAFF33"
    />
    <path
      d="M21.7642 22C21.3049 22.0011 20.8556 21.8692 20.4732 21.6211C20.0908 21.373 19.7926 21.0199 19.6163 20.6064C19.44 20.1929 19.3936 19.7378 19.483 19.2986C19.5723 18.8594 19.7934 18.4559 20.1182 18.1393C20.443 17.8227 20.8569 17.6072 21.3075 17.5202C21.758 17.4331 22.225 17.4783 22.6491 17.6501C23.0733 17.822 23.4356 18.1127 23.6901 18.4854C23.9446 18.8581 24.0799 19.2961 24.0788 19.7438C24.0759 20.3413 23.8311 20.9136 23.3977 21.3361C22.9643 21.7586 22.3772 21.9972 21.7642 22ZM21.7642 18.0129C21.413 18.0129 21.0697 18.1144 20.7777 18.3046C20.4856 18.4948 20.258 18.7651 20.1236 19.0814C19.9892 19.3977 19.954 19.7458 20.0226 20.0815C20.0911 20.4173 20.2602 20.7257 20.5086 20.9678C20.7569 21.2099 21.0733 21.3748 21.4178 21.4415C21.7623 21.5083 22.1193 21.4741 22.4438 21.343C22.7683 21.212 23.0456 20.9902 23.2408 20.7055C23.4359 20.4209 23.54 20.0862 23.54 19.7438C23.54 19.2847 23.3529 18.8445 23.0199 18.5198C22.6869 18.1952 22.2352 18.0129 21.7642 18.0129ZM21.7642 11.523C21.3051 11.5241 20.856 11.3924 20.4738 11.1445C20.0915 10.8967 19.7933 10.5438 19.6169 10.1307C19.4404 9.71754 19.3937 9.26265 19.4826 8.82361C19.5715 8.38457 19.792 7.9811 20.1163 7.66428C20.4405 7.34747 20.8539 7.13155 21.3041 7.04385C21.7543 6.95615 22.2211 7.00062 22.6453 7.17163C23.0696 7.34265 23.4323 7.63251 23.6874 8.00453C23.9426 8.37655 24.0788 8.814 24.0788 9.26152C24.0774 9.85995 23.8332 10.4335 23.3996 10.8572C22.966 11.2809 22.3782 11.5202 21.7642 11.523ZM21.7642 7.53054C21.413 7.53054 21.0697 7.63206 20.7777 7.82226C20.4856 8.01247 20.258 8.28281 20.1236 8.5991C19.9892 8.9154 19.954 9.26344 20.0226 9.59921C20.0911 9.93499 20.2602 10.2434 20.5086 10.4855C20.7569 10.7276 21.0733 10.8924 21.4178 10.9592C21.7623 11.026 22.1193 10.9917 22.4438 10.8607C22.7683 10.7297 23.0456 10.5079 23.2408 10.2232C23.4359 9.93854 23.54 9.60387 23.54 9.26152C23.5429 9.0324 23.4992 8.80501 23.4112 8.59252C23.3233 8.38002 23.1929 8.18666 23.0278 8.02365C22.8626 7.86064 22.6658 7.73122 22.4489 7.64289C22.232 7.55456 21.9993 7.50909 21.7642 7.50911V7.53054ZM12.0496 17.2144C11.497 17.2154 10.9565 17.0567 10.4965 16.7582C10.0365 16.4597 9.67763 16.0349 9.4654 15.5375C9.25317 15.0401 9.19708 14.4926 9.30422 13.9641C9.41136 13.4357 9.67692 12.9501 10.0673 12.5688C10.4577 12.1876 10.9553 11.9277 11.4972 11.8223C12.0391 11.7168 12.601 11.7704 13.1116 11.9763C13.6223 12.1822 14.0588 12.5311 14.3659 12.9789C14.6731 13.4267 14.837 13.9533 14.837 14.492C14.8356 15.2126 14.5416 15.9034 14.0193 16.4135C13.4971 16.9236 12.7889 17.2115 12.0496 17.2144ZM12.0496 12.3001C11.6049 12.3001 11.1701 12.4287 10.8003 12.6695C10.4306 12.9103 10.1424 13.2527 9.97217 13.6532C9.80198 14.0537 9.75745 14.4944 9.84421 14.9196C9.93097 15.3447 10.1451 15.7353 10.4596 16.0418C10.7741 16.3484 11.1747 16.5571 11.6109 16.6417C12.0471 16.7263 12.4992 16.6829 12.9101 16.517C13.321 16.3511 13.6722 16.0701 13.9193 15.7097C14.1663 15.3492 14.2982 14.9255 14.2982 14.492C14.2982 14.2041 14.24 13.9191 14.127 13.6532C14.014 13.3872 13.8484 13.1456 13.6396 12.9421C13.4308 12.7385 13.1829 12.5771 12.9101 12.4669C12.6373 12.3568 12.3449 12.3001 12.0496 12.3001Z"
      fill="#CAFF33"
    />
  </svg>