<svg
    xmlns="http://www.w3.org/2000/svg"
    width="35"
    height="32"
    viewBox="0 0 35 32"
    fill="none"
  >
    <g clip-path="url(#clip0_465_200)">
      <path
        d="M24.923 31.605H10.0606C10.0262 31.605 9.99208 31.5985 9.96034 31.5859C9.92859 31.5733 9.89982 31.5548 9.87572 31.5315C9.85162 31.5082 9.83267 31.4806 9.81997 31.4503C9.80728 31.42 9.80111 31.3876 9.80181 31.355V28C9.81986 27.6511 9.91358 27.3095 10.0771 26.9964C10.2407 26.6833 10.4706 26.4054 10.7525 26.18C11.478 25.6262 12.3453 25.2639 13.2665 25.13C14.3229 24.935 15.0359 24.63 15.2207 24.225C15.3462 23.8901 15.3789 23.5303 15.3158 23.18H15.8387C15.9068 23.6112 15.8577 24.0518 15.6961 24.46C15.4267 25.01 14.6398 25.41 13.3616 25.64C12.5377 25.748 11.7592 26.0621 11.1064 26.55C10.8786 26.7289 10.6914 26.9496 10.5562 27.1988C10.4209 27.448 10.3404 27.7205 10.3194 28V31.12H24.6642V28C24.548 26.5 22.953 25.875 21.6326 25.64C20.3122 25.405 19.5622 25 19.2928 24.43C19.132 24.0128 19.0866 23.5636 19.1608 23.125C19.1641 23.0928 19.1741 23.0615 19.1903 23.0329C19.2064 23.0044 19.2284 22.9791 19.2549 22.9587C19.2814 22.9382 19.312 22.923 19.3448 22.9137C19.3776 22.9045 19.412 22.9016 19.446 22.905C19.5142 22.9126 19.5766 22.945 19.62 22.9954C19.6634 23.0458 19.6844 23.1102 19.6784 23.175C19.6206 23.5265 19.6495 23.8859 19.7629 24.225C19.953 24.615 20.6502 24.935 21.7277 25.13C23.8773 25.52 25.0709 26.495 25.1818 27.96V31.355C25.1825 31.3876 25.1763 31.42 25.1637 31.4503C25.151 31.4806 25.132 31.5082 25.1079 31.5315C25.0838 31.5548 25.055 31.5733 25.0233 31.5859C24.9915 31.5985 24.9575 31.605 24.923 31.605ZM14.0799 19.125C14.0451 19.1324 14.0091 19.1324 13.9743 19.125C13.9371 19.1099 13.9042 19.0866 13.8785 19.057C13.8528 19.0275 13.8349 18.9925 13.8264 18.955C13.7736 18.73 13.3458 16.72 14.1908 15.89C14.3274 15.7602 14.4937 15.662 14.6769 15.603C14.8602 15.544 15.0553 15.5259 15.2471 15.55C15.5007 15.205 16.3035 14.55 18.6907 14.935C19.094 14.98 19.4826 15.1058 19.8305 15.3041C20.1784 15.5024 20.4776 15.7686 20.7083 16.085C21.5428 17.275 21.152 18.89 21.1308 18.96C21.1187 19.0138 21.0875 19.0621 21.0423 19.0967C20.9971 19.1312 20.9407 19.1501 20.8826 19.15C20.8243 19.1515 20.7673 19.1339 20.7211 19.1002C20.6749 19.0665 20.6424 19.0188 20.6291 18.965C20.6291 18.915 20.2435 17.7 17.9407 17.905C16.7788 18.01 16.1556 17.78 15.8281 17.55C15.4732 18.2202 14.9064 18.769 14.2067 19.12C14.1654 19.1309 14.122 19.1326 14.0799 19.125ZM15.0993 16C15.0018 15.9969 14.9048 16.0126 14.814 16.0461C14.7232 16.0796 14.6405 16.1303 14.5711 16.195C14.1116 16.645 14.1697 17.785 14.2753 18.465C14.8458 18.1255 15.272 17.6069 15.4795 17C15.4941 16.9506 15.5241 16.9066 15.5656 16.8736C15.607 16.8406 15.658 16.8202 15.7119 16.815C15.7664 16.8103 15.821 16.8223 15.8676 16.8493C15.9143 16.8764 15.9504 16.9169 15.9707 16.965C15.9707 16.965 16.2929 17.525 17.8932 17.38C19.4935 17.235 20.2911 17.7 20.7136 18.135C20.7684 17.5017 20.6153 16.8678 20.2752 16.32C20.0821 16.0619 19.8336 15.8451 19.546 15.684C19.2585 15.5229 18.9382 15.421 18.6062 15.385C16.0447 14.98 15.6327 15.86 15.6327 15.885C15.6089 15.9374 15.5676 15.981 15.5151 16.009C15.4626 16.037 15.4019 16.0479 15.3422 16.04C15.2627 16.0196 15.1814 16.0062 15.0993 16Z"
        fill="black"
      />
      <path
        d="M17.492 24.25C17.0495 24.2428 16.6152 24.1365 16.2244 23.94C15.2399 23.3654 14.5268 22.454 14.2332 21.395L14.1487 21.355C13.7995 21.0669 13.5818 20.6618 13.5414 20.225C13.4146 19.645 13.4674 19.255 13.6945 19.04C13.7322 19.0024 13.777 18.9719 13.8266 18.95C13.8105 18.8864 13.8214 18.8193 13.857 18.7632C13.8925 18.7072 13.9499 18.6665 14.0167 18.65C14.0496 18.6417 14.084 18.6396 14.1178 18.644C14.1516 18.6483 14.1841 18.6589 14.2136 18.6751C14.243 18.6914 14.2688 18.713 14.2894 18.7387C14.31 18.7644 14.325 18.7937 14.3336 18.825L14.4023 19.08C14.4137 19.1202 14.4139 19.1626 14.4028 19.2029C14.3916 19.2433 14.3696 19.2802 14.3389 19.31C14.3084 19.3409 14.2701 19.364 14.2276 19.3772C14.1851 19.3903 14.1398 19.393 14.0959 19.385C14.0431 19.425 13.9375 19.575 14.059 20.13C14.2068 20.795 14.3917 20.925 14.4287 20.945C14.4823 20.9416 14.5357 20.9538 14.5818 20.98C14.6123 20.9964 14.6388 21.0187 14.6598 21.0454C14.6807 21.0721 14.6955 21.1026 14.7033 21.135C14.7033 21.135 15.11 22.825 16.4726 23.515C16.788 23.6751 17.1395 23.7609 17.4973 23.765C17.8499 23.7597 18.1959 23.6739 18.5061 23.515C19.874 22.825 20.2754 21.155 20.2807 21.14C20.2878 21.1067 20.3023 21.0752 20.3233 21.0476C20.3442 21.0201 20.3711 20.997 20.4022 20.98C20.448 20.9532 20.5016 20.9409 20.5553 20.945C20.5923 20.945 20.7771 20.795 20.925 20.13C21.0518 19.55 20.925 19.41 20.925 19.4C20.8803 19.407 20.8345 19.4039 20.7913 19.3909C20.7482 19.3778 20.7089 19.3553 20.6768 19.325C20.6438 19.2971 20.6184 19.2621 20.6028 19.2229C20.5871 19.1837 20.5817 19.1416 20.587 19.1L20.6345 18.845C20.6465 18.7787 20.6857 18.7196 20.7436 18.6807C20.8016 18.6417 20.8735 18.6262 20.9435 18.6375C21.0136 18.6488 21.076 18.6859 21.1171 18.7408C21.1582 18.7956 21.1746 18.8637 21.1627 18.93C21.2183 18.954 21.2685 18.988 21.3106 19.03C21.543 19.245 21.5905 19.635 21.4638 20.215C21.4247 20.6511 21.2089 21.056 20.8617 21.345L20.7771 21.385C20.4836 22.444 19.7705 23.3554 18.786 23.93C18.3881 24.1335 17.9442 24.2433 17.492 24.25ZM17.492 26.055C16.9974 26.0459 16.5095 25.9445 16.0563 25.7566C15.6032 25.5687 15.1936 25.298 14.8512 24.96C14.8259 24.9375 14.8058 24.9104 14.792 24.8803C14.7783 24.8502 14.7712 24.8178 14.7712 24.785C14.7712 24.7522 14.7783 24.7197 14.792 24.6896C14.8058 24.6595 14.8259 24.6324 14.8512 24.61C14.8997 24.5645 14.9652 24.539 15.0334 24.539C15.1017 24.539 15.1672 24.5645 15.2156 24.61C15.5077 24.9055 15.86 25.142 16.2512 25.3053C16.6424 25.4686 17.0645 25.5552 17.492 25.56C17.9215 25.5532 18.3453 25.4658 18.7388 25.3027C19.1323 25.1396 19.4876 24.9042 19.7842 24.61C19.8327 24.5645 19.8982 24.539 19.9664 24.539C20.0347 24.539 20.1002 24.5645 20.1486 24.61C20.1739 24.6324 20.194 24.6595 20.2078 24.6896C20.2216 24.7197 20.2287 24.7522 20.2287 24.785C20.2287 24.8178 20.2216 24.8502 20.2078 24.8803C20.194 24.9104 20.1739 24.9375 20.1486 24.96C19.8043 25.2997 19.3922 25.5715 18.9362 25.7594C18.4802 25.9474 17.9893 26.0478 17.492 26.055ZM15.7332 17.315C15.6756 17.3162 15.6193 17.2984 15.574 17.2647C15.5287 17.2309 15.4972 17.1833 15.485 17.13L15.1364 15.855C15.1277 15.8235 15.1258 15.7906 15.1307 15.7584C15.1356 15.7261 15.1472 15.6951 15.1649 15.6672C15.1826 15.6392 15.206 15.6149 15.2338 15.5957C15.2615 15.5764 15.2931 15.5626 15.3265 15.555C15.3591 15.5467 15.3932 15.5448 15.4266 15.5491C15.46 15.5535 15.4922 15.5642 15.5212 15.5805C15.5502 15.5968 15.5755 15.6184 15.5956 15.6441C15.6157 15.6697 15.6302 15.6989 15.6382 15.73L15.9867 17C15.9954 17.0315 15.9974 17.0644 15.9925 17.0966C15.9876 17.1288 15.9759 17.1598 15.9582 17.1878C15.9405 17.2157 15.9171 17.24 15.8893 17.2593C15.8616 17.2786 15.8301 17.2924 15.7966 17.3L15.7332 17.315ZM10.0608 31.605H0.849673C0.815238 31.605 0.781148 31.5985 0.749399 31.5859C0.717651 31.5732 0.688884 31.5547 0.664782 31.5315C0.64068 31.5082 0.621728 31.4806 0.609037 31.4503C0.596346 31.42 0.590171 31.3876 0.590874 31.355V28.5C0.685943 27.225 1.70529 26.385 3.54857 26.055C4.4306 25.9 5.02214 25.63 5.1753 25.31C5.27587 25.0321 5.30307 24.7351 5.25453 24.445H5.77212C5.82494 24.8007 5.78318 25.1633 5.65065 25.5C5.35488 26.105 4.39363 26.39 3.64364 26.5C2.53978 26.7 1.20354 27.21 1.10847 28.5V31.095H10.0872C10.1572 31.095 10.2244 31.1213 10.2739 31.1682C10.3234 31.2151 10.3513 31.2787 10.3513 31.345C10.3513 31.4113 10.3234 31.4749 10.2739 31.5218C10.2244 31.5686 10.1572 31.595 10.0872 31.595L10.0608 31.605ZM10.927 26.585H10.8741L10.6259 26.535C9.87593 26.405 8.91467 26.12 8.61891 25.535C8.4791 25.1685 8.44269 24.7738 8.51327 24.39C8.52028 24.3237 8.55482 24.2627 8.60929 24.2205C8.66377 24.1783 8.73372 24.1583 8.80376 24.165C8.8738 24.1716 8.93819 24.2043 8.98276 24.2559C9.02733 24.3075 9.04844 24.3737 9.04143 24.44C8.98965 24.7313 9.01506 25.0302 9.11538 25.31C9.26854 25.63 9.86536 25.9 10.7421 26.055L10.9903 26.1C11.0241 26.106 11.0563 26.1182 11.085 26.1361C11.1137 26.154 11.1384 26.1771 11.1576 26.2041C11.1767 26.2311 11.19 26.2614 11.1967 26.2933C11.2033 26.3253 11.2032 26.3581 11.1963 26.39C11.1827 26.4472 11.1483 26.4982 11.0991 26.5338C11.0498 26.5695 10.9889 26.5876 10.927 26.585ZM10.0027 21.05C9.9453 21.0503 9.8895 21.0322 9.84441 20.9986C9.79931 20.965 9.7676 20.9179 9.75445 20.865C9.75445 20.825 9.43755 19.83 7.52033 20C6.91179 20.1046 6.28375 20.0038 5.74572 19.715C5.43836 20.265 4.96117 20.7133 4.37778 21C4.34173 21.0171 4.30194 21.0261 4.26159 21.0261C4.22124 21.0261 4.18144 21.0171 4.14539 21C4.10889 20.9839 4.07666 20.9603 4.05106 20.9309C4.02547 20.9015 4.00717 20.867 3.99751 20.83C3.95525 20.635 3.59082 18.92 4.31968 18.205C4.43465 18.0912 4.57637 18.0047 4.73331 17.9526C4.89025 17.9005 5.05798 17.8841 5.22284 17.905C5.46051 17.6 6.17352 17.07 8.15941 17.405C8.50656 17.4458 8.84056 17.5561 9.13924 17.7285C9.43791 17.9009 9.69444 18.1315 9.89177 18.405C10.3282 19.1566 10.4579 20.0338 10.2562 20.87C10.2432 20.9234 10.2117 20.9711 10.1667 21.0055C10.1217 21.04 10.0658 21.0591 10.008 21.06L10.0027 21.05ZM5.1172 18.42C5.03967 18.4162 4.96214 18.4275 4.88944 18.4533C4.81674 18.4791 4.75044 18.5188 4.69468 18.57C4.33025 18.93 4.36722 19.83 4.44644 20.4C4.89384 20.1162 5.22841 19.6992 5.39713 19.215C5.41105 19.1653 5.44084 19.1208 5.48243 19.0877C5.52402 19.0546 5.57539 19.0344 5.62952 19.03C5.6842 19.0237 5.73955 19.0345 5.7872 19.0606C5.83485 19.0868 5.8722 19.1269 5.8936 19.175C5.8936 19.175 6.16296 19.625 7.47808 19.51C8.7932 19.395 9.44812 19.74 9.83367 20.09C9.85934 19.5911 9.73086 19.0959 9.46396 18.665C9.30332 18.4519 9.09708 18.2732 8.85867 18.1405C8.62025 18.0078 8.355 17.9242 8.08018 17.895C5.96754 17.56 5.60839 18.275 5.60839 18.28C5.58464 18.3324 5.54333 18.376 5.49084 18.404C5.43835 18.432 5.37758 18.4429 5.31791 18.435L5.1172 18.42Z"
        fill="black"
      />
      <path
        d="M7.14538 25.385C6.76421 25.3779 6.38999 25.2872 6.05209 25.12C5.21682 24.6298 4.60905 23.8579 4.35141 22.96L4.28803 22.93C3.97926 22.6759 3.78936 22.3163 3.75987 21.93C3.64896 21.43 3.69649 21.085 3.8972 20.895C3.92482 20.8671 3.9569 20.8435 3.99226 20.825C3.97756 20.7587 3.99127 20.6896 4.0304 20.6329C4.06952 20.5761 4.13085 20.5364 4.20089 20.5225C4.27093 20.5086 4.34394 20.5216 4.40386 20.5586C4.46379 20.5957 4.50572 20.6537 4.52042 20.72L4.57852 20.935C4.59095 20.976 4.59164 21.0194 4.5805 21.0607C4.56936 21.102 4.5468 21.1397 4.51514 21.17C4.48466 21.1993 4.44702 21.221 4.40557 21.2332C4.36411 21.2454 4.32011 21.2477 4.27747 21.24C4.21379 21.4394 4.21748 21.6527 4.28803 21.85C4.40423 22.35 4.54155 22.48 4.57324 22.505C4.62329 22.5039 4.67267 22.516 4.71584 22.54C4.74555 22.5568 4.77122 22.5792 4.79123 22.6059C4.81124 22.6326 4.82514 22.6629 4.83204 22.695C5.0373 23.5159 5.56638 24.2315 6.31089 24.695C6.5735 24.8254 6.86475 24.8956 7.16123 24.9C7.44972 24.8895 7.73173 24.8159 7.98516 24.685C8.72966 24.2215 9.25874 23.5059 9.464 22.685C9.47182 22.6526 9.48665 22.6221 9.50756 22.5954C9.52847 22.5688 9.555 22.5465 9.58548 22.53C9.62701 22.5067 9.67451 22.4946 9.7228 22.495C9.75978 22.495 9.8971 22.34 10.008 21.835C10.0978 21.415 10.0344 21.265 10.008 21.25C9.96746 21.259 9.92513 21.2577 9.88528 21.2463C9.84542 21.2349 9.80942 21.2137 9.7809 21.185C9.75055 21.157 9.72831 21.122 9.71629 21.0835C9.70427 21.045 9.70287 21.0042 9.71224 20.965L9.75449 20.75C9.765 20.6837 9.8029 20.6241 9.85985 20.5842C9.9168 20.5444 9.98815 20.5276 10.0582 20.5375C10.1282 20.5475 10.1912 20.5833 10.2333 20.6373C10.2754 20.6912 10.2932 20.7587 10.2827 20.825C10.3232 20.8469 10.3605 20.8738 10.3936 20.905C10.5995 21.095 10.6418 21.435 10.5309 21.94C10.5174 22.1316 10.4638 22.3186 10.3731 22.4903C10.2824 22.662 10.1565 22.8149 10.0027 22.94L9.94463 22.97C9.68893 23.8687 9.08068 24.6413 8.24395 25.13C7.90371 25.2948 7.52754 25.3821 7.14538 25.385ZM7.13482 26.91C6.71169 26.907 6.29334 26.825 5.90366 26.6689C5.51398 26.5127 5.16061 26.2855 4.86373 26C4.83847 25.9776 4.81833 25.9505 4.80457 25.9204C4.7908 25.8903 4.7837 25.8578 4.7837 25.825C4.7837 25.7922 4.7908 25.7598 4.80457 25.7297C4.81833 25.6996 4.83847 25.6725 4.86373 25.65C4.9122 25.6045 4.97769 25.579 5.04594 25.579C5.1142 25.579 5.17969 25.6045 5.22816 25.65C5.474 25.8957 5.76941 26.0923 6.09692 26.2279C6.42442 26.3636 6.77735 26.4358 7.13482 26.44C7.49388 26.4309 7.84741 26.3541 8.17477 26.2141C8.50213 26.0742 8.79677 25.8739 9.04148 25.625C9.0905 25.5786 9.157 25.5525 9.22633 25.5525C9.29567 25.5525 9.36216 25.5786 9.41119 25.625C9.46022 25.6714 9.48776 25.7344 9.48776 25.8C9.48776 25.8657 9.46022 25.9286 9.41119 25.975C8.81301 26.5596 7.99441 26.8958 7.13482 26.91ZM5.65069 19.5C5.5933 19.5003 5.5375 19.4822 5.49241 19.4486C5.44732 19.415 5.4156 19.3679 5.40245 19.315L5.10668 18.235C5.08917 18.1687 5.1002 18.0985 5.13735 18.0399C5.17449 17.9813 5.2347 17.9391 5.30474 17.9225C5.37478 17.9059 5.44891 17.9164 5.51081 17.9515C5.57272 17.9867 5.61733 18.0437 5.63484 18.11L5.92533 19.195C5.93409 19.2262 5.93624 19.2587 5.93168 19.2907C5.92712 19.3227 5.91593 19.3535 5.89876 19.3814C5.88158 19.4093 5.85875 19.4337 5.83159 19.4532C5.80443 19.4727 5.77346 19.4869 5.74048 19.495L5.65069 19.5ZM34.1344 31.605H24.9233C24.8532 31.605 24.786 31.5787 24.7365 31.5318C24.687 31.4849 24.6592 31.4213 24.6592 31.355C24.6592 31.2887 24.687 31.2251 24.7365 31.1782C24.786 31.1314 24.8532 31.105 24.9233 31.105H33.865V28.5C33.7647 27.24 32.4284 26.735 31.3298 26.535C30.5799 26.405 29.6186 26.12 29.3228 25.535C29.1809 25.1779 29.139 24.792 29.2014 24.415C29.207 24.3487 29.2402 24.2872 29.2936 24.2441C29.3471 24.201 29.4165 24.1797 29.4866 24.185C29.5566 24.1903 29.6215 24.2217 29.6671 24.2724C29.7127 24.323 29.7351 24.3887 29.7295 24.455C29.6809 24.7465 29.7063 25.0447 29.8035 25.325C29.9619 25.65 30.5534 25.92 31.4355 26.075C33.2735 26.405 34.2928 27.245 34.3932 28.5V31.375C34.3891 31.4374 34.3601 31.4959 34.312 31.5386C34.2639 31.5814 34.2003 31.6051 34.1344 31.605ZM24.0571 26.585C23.9978 26.5841 23.9406 26.5644 23.8946 26.5291C23.8487 26.4937 23.8166 26.4447 23.8036 26.39C23.7967 26.3581 23.7965 26.3253 23.8032 26.2934C23.8098 26.2615 23.8232 26.2311 23.8423 26.2041C23.8615 26.1771 23.8862 26.154 23.9149 26.1362C23.9436 26.1183 23.9758 26.106 24.0095 26.1L24.2578 26.055C25.1345 25.9 25.7261 25.63 25.8792 25.31C25.976 25.0312 25.9978 24.7339 25.9426 24.445H26.4708C26.5273 24.8007 26.4855 25.1642 26.3493 25.5C26.0588 26.105 25.1028 26.385 24.3528 26.5L24.1099 26.545L24.0571 26.585ZM30.696 21.05C30.638 21.0506 30.5814 21.0326 30.5355 20.9991C30.4895 20.9655 30.4567 20.9183 30.4425 20.865C30.4425 20.825 30.1256 19.825 28.2137 20C27.6154 20.0955 27.0006 19.9949 26.4708 19.715C26.1587 20.2669 25.6758 20.7153 25.087 21C25.0509 21.0172 25.0111 21.0261 24.9708 21.0261C24.9304 21.0261 24.8906 21.0172 24.8546 21C24.8169 20.9857 24.7836 20.9626 24.7578 20.9329C24.7319 20.9032 24.7144 20.8678 24.7067 20.83C24.6592 20.635 24.2947 18.92 25.0236 18.205C25.1386 18.0912 25.2803 18.0048 25.4372 17.9526C25.5942 17.9005 25.7619 17.8842 25.9268 17.905C26.1644 17.6 26.8775 17.07 28.8686 17.405C29.2156 17.4465 29.5493 17.557 29.8479 17.7294C30.1465 17.9018 30.4032 18.132 30.601 18.405C31.0341 19.1577 31.1636 20.0337 30.9654 20.87C30.9514 20.9238 30.9188 20.9717 30.873 21.006C30.8271 21.0404 30.7704 21.0594 30.7119 21.06L30.696 21.05ZM25.8053 18.42C25.7278 18.4168 25.6505 18.4284 25.5778 18.4542C25.5052 18.48 25.4389 18.5194 25.3828 18.57C25.0183 18.93 25.0553 19.825 25.1345 20.4C25.5845 20.1176 25.9211 19.7003 26.0905 19.215C26.1037 19.1649 26.1333 19.1201 26.175 19.0869C26.2167 19.0536 26.2685 19.0337 26.3229 19.03C26.377 19.0232 26.4319 19.0338 26.4788 19.0601C26.5258 19.0864 26.562 19.1269 26.5817 19.175C26.5817 19.175 26.851 19.625 28.1662 19.51C29.4813 19.395 30.1362 19.74 30.5165 20.09C30.5466 19.5907 30.4178 19.0943 30.1468 18.665C29.9872 18.4521 29.7819 18.2734 29.5443 18.1407C29.3068 18.008 29.0423 17.9243 28.7683 17.895C26.6556 17.56 26.2965 18.275 26.2912 18.28C26.2684 18.332 26.2281 18.3755 26.1765 18.4035C26.1249 18.4315 26.0649 18.4426 26.006 18.435L25.8053 18.42Z"
        fill="black"
      />
      <path
        d="M27.8491 25.385C27.4681 25.3771 27.094 25.2865 26.7558 25.12C25.92 24.6315 25.3134 23.8586 25.0604 22.96L24.9971 22.93C24.6883 22.6759 24.4984 22.3163 24.4689 21.93C24.358 21.43 24.4055 21.085 24.6115 20.895C24.6361 20.8662 24.6667 20.8424 24.7013 20.825C24.6914 20.7637 24.7059 20.7011 24.742 20.6494C24.7781 20.5976 24.8333 20.5604 24.8967 20.545C24.9297 20.5367 24.964 20.5347 24.9978 20.539C25.0316 20.5433 25.0641 20.5539 25.0936 20.5702C25.123 20.5864 25.1488 20.608 25.1694 20.6337C25.19 20.6595 25.205 20.6888 25.2136 20.72L25.2717 20.935C25.2817 20.9761 25.2811 21.0189 25.2701 21.0598C25.2591 21.1006 25.2379 21.1384 25.2083 21.17C25.1765 21.199 25.1379 21.2204 25.0957 21.2326C25.0535 21.2448 25.0088 21.2473 24.9654 21.24C24.9654 21.24 24.8861 21.405 24.9654 21.83C25.0446 22.255 25.2136 22.46 25.2506 22.485C25.2989 22.4846 25.3464 22.4967 25.3879 22.52C25.4184 22.5365 25.4449 22.5588 25.4658 22.5854C25.4867 22.6121 25.5016 22.6426 25.5094 22.675C25.7121 23.497 26.2418 24.2133 26.9882 24.675C27.249 24.8053 27.5385 24.8755 27.8333 24.88C28.1246 24.8749 28.4106 24.8046 28.6678 24.675C29.415 24.2141 29.9449 23.4974 30.1466 22.675C30.1544 22.6426 30.1693 22.6121 30.1902 22.5854C30.2111 22.5588 30.2376 22.5365 30.2681 22.52C30.3104 22.4985 30.3574 22.4865 30.4054 22.485C30.4424 22.485 30.5797 22.33 30.6906 21.825C30.7857 21.405 30.6906 21.255 30.6906 21.24C30.6493 21.2494 30.606 21.2483 30.5653 21.2369C30.5245 21.2255 30.4876 21.2041 30.4582 21.175C30.43 21.1457 30.4095 21.1105 30.3985 21.0722C30.3875 21.034 30.3862 20.9938 30.3948 20.955L30.4318 20.74C30.4447 20.6751 30.4841 20.6177 30.5415 20.5803C30.5988 20.5428 30.6695 20.5283 30.7382 20.54C30.8029 20.5532 30.8603 20.5886 30.8993 20.6393C30.9382 20.69 30.9561 20.7526 30.9494 20.815C30.9893 20.8357 31.025 20.8627 31.055 20.895C31.261 21.085 31.3086 21.425 31.1977 21.93C31.1682 22.3163 30.9783 22.6759 30.6695 22.93L30.6061 22.96C30.3532 23.8586 29.7466 24.6315 28.9107 25.12C28.5822 25.2824 28.2195 25.373 27.8491 25.385ZM27.8438 26.91C26.9879 26.903 26.1697 26.5758 25.5675 26C25.5432 25.977 25.5239 25.9497 25.5108 25.9197C25.4977 25.8897 25.4909 25.8575 25.4909 25.825C25.4909 25.7925 25.4977 25.7603 25.5108 25.7303C25.5239 25.7003 25.5432 25.673 25.5675 25.65C25.5917 25.627 25.6206 25.6088 25.6523 25.5964C25.684 25.5839 25.718 25.5775 25.7523 25.5775C25.7867 25.5775 25.8207 25.5839 25.8524 25.5964C25.8841 25.6088 25.9129 25.627 25.9372 25.65C26.1819 25.8971 26.4771 26.0945 26.8048 26.2303C27.1326 26.3661 27.4861 26.4375 27.8438 26.44C28.2018 26.4342 28.555 26.3614 28.8832 26.2258C29.2113 26.0902 29.5079 25.8945 29.7558 25.65C29.8042 25.6045 29.8697 25.579 29.938 25.579C30.0062 25.579 30.0717 25.6045 30.1202 25.65C30.1455 25.6724 30.1656 25.6996 30.1794 25.7297C30.1931 25.7598 30.2002 25.7922 30.2002 25.825C30.2002 25.8578 30.1931 25.8903 30.1794 25.9204C30.1656 25.9504 30.1455 25.9776 30.1202 26C29.5183 26.5763 28.6999 26.9035 27.8438 26.91ZM26.3597 19.5C26.3019 19.4997 26.2458 19.4814 26.2 19.448C26.1542 19.4146 26.1212 19.3679 26.1062 19.315L25.8157 18.235C25.7982 18.1687 25.8092 18.0985 25.8464 18.0399C25.8835 17.9813 25.9437 17.9391 26.0138 17.9225C26.0838 17.9059 26.1579 17.9164 26.2198 17.9515C26.2817 17.9867 26.3264 18.0437 26.3439 18.11L26.6344 19.195C26.6431 19.2262 26.6453 19.2587 26.6407 19.2907C26.6361 19.3227 26.625 19.3535 26.6078 19.3814C26.5906 19.4093 26.5678 19.4336 26.5406 19.4531C26.5134 19.4726 26.4825 19.4869 26.4495 19.495L26.3597 19.5ZM4.73685 17.315C4.68194 17.3146 4.62852 17.298 4.58403 17.2676C4.53954 17.2371 4.50619 17.1943 4.48862 17.145L3.58546 14.46C3.08274 14.1428 2.66748 13.7163 2.37438 13.2161C2.08128 12.716 1.91884 12.1567 1.90063 11.585C1.90063 9.45001 4.18228 7.71002 6.98681 7.71002C9.79134 7.71002 12.073 9.45001 12.073 11.585C12.073 13.72 9.79134 15.46 6.98681 15.46C6.5121 15.4585 6.03907 15.4065 5.57663 15.305L4.98509 17.14C4.96993 17.191 4.93736 17.2359 4.89245 17.2675C4.84755 17.2992 4.79283 17.3159 4.73685 17.315ZM6.98681 8.20501C4.47277 8.20501 2.42351 9.70501 2.42351 11.585C2.44735 12.0877 2.59906 12.5774 2.86572 13.0127C3.13239 13.448 3.50613 13.8158 3.95518 14.085C4.00408 14.1155 4.03971 14.1616 4.05553 14.215L4.73157 16.215L5.14882 14.91C5.16842 14.8488 5.21255 14.7972 5.27177 14.7664C5.33098 14.7356 5.40059 14.7279 5.46571 14.745C5.96123 14.8742 6.47284 14.9398 6.98681 14.94C9.50613 14.94 11.5554 13.44 11.5554 11.56C11.5554 9.68001 9.50613 8.20501 6.98681 8.20501ZM30.247 17.315C30.191 17.3159 30.1363 17.2992 30.0914 17.2675C30.0465 17.2359 30.0139 17.191 29.9987 17.14L29.4072 15.305C28.9447 15.4065 28.4717 15.4585 27.997 15.46C25.1925 15.46 22.9108 13.72 22.9108 11.585C22.9108 9.45001 25.1925 7.71002 27.997 7.71002C30.8015 7.71002 33.0832 9.45001 33.0832 11.585C33.065 12.1567 32.9025 12.716 32.6094 13.2161C32.3163 13.7163 31.9011 14.1428 31.3984 14.46L30.4952 17.145C30.477 17.1939 30.4434 17.2363 30.3991 17.2667C30.3548 17.297 30.3017 17.3139 30.247 17.315ZM29.5868 14.76C29.6423 14.7607 29.6962 14.7781 29.7408 14.8095C29.7854 14.8409 29.8183 14.8848 29.835 14.935L30.2522 16.24L30.9283 14.24C30.9441 14.1866 30.9797 14.1405 31.0286 14.11C31.4777 13.8408 31.8514 13.473 32.1181 13.0377C32.3848 12.6024 32.5365 12.1127 32.5603 11.61C32.5603 9.74501 30.511 8.23001 27.997 8.23001C25.483 8.23001 23.4284 9.73001 23.4284 11.61C23.4284 13.49 25.4777 14.99 27.997 14.99C28.511 14.9898 29.0226 14.9242 29.5181 14.795L29.5868 14.76ZM16.6416 13.935C16.5953 13.9358 16.5496 13.9246 16.5096 13.9025C16.4695 13.8805 16.4366 13.8485 16.4145 13.81L14.4233 10.5C12.073 9.56501 10.6258 7.75002 10.6258 5.71502C10.6258 2.78502 13.6997 0.39502 17.4919 0.39502C21.2841 0.39502 24.358 2.78502 24.358 5.71502C24.358 8.64501 21.2841 11.035 17.4919 11.035H17.249L16.8951 13.725C16.8887 13.7767 16.8654 13.8252 16.8284 13.8637C16.7915 13.9022 16.7428 13.9289 16.6891 13.94L16.6416 13.935ZM17.4919 0.890019C13.9849 0.890019 11.154 3.05502 11.154 5.71502C11.154 7.57002 12.5219 9.21501 14.7191 10.05C14.7749 10.069 14.8218 10.1062 14.8511 10.155L16.499 12.92L16.7842 10.745C16.7921 10.6823 16.8248 10.6247 16.8758 10.5839C16.9268 10.5431 16.9921 10.522 17.0588 10.525H17.513C21.02 10.525 23.851 8.36001 23.851 5.69502C23.851 3.03002 20.9989 0.890019 17.4919 0.890019Z"
        fill="black"
      />
    </g>
    <defs>
      <clipPath id="clip0_465_200">
        <rect
          width="33.8022"
          height="32"
          fill="white"
          transform="translate(0.59082)"
        />
      </clipPath>
    </defs>
  </svg>