<svg
    xmlns="http://www.w3.org/2000/svg"
    width="39"
    height="30"
    viewBox="0 0 39 30"
    fill="none"
  >
    <path
      d="M11.8873 27C11.8189 27 11.7505 27 11.6821 26.9357L9.69843 25.7143H2.3111C1.35349 25.7143 0.601074 25.0071 0.601074 24.1071V18.9643C0.601074 18.0643 1.35349 17.3571 2.3111 17.3571H10.5192C11.4769 17.3571 12.2293 18.0643 12.2293 18.9643V26.6786C12.2293 26.8071 12.1609 26.9357 12.0241 26.9357C12.0241 27 11.9557 27 11.8873 27ZM2.3111 18C1.76389 18 1.28509 18.45 1.28509 18.9643V24.1071C1.28509 24.6214 1.76389 25.0714 2.3111 25.0714H9.83523C9.90363 25.0714 9.97203 25.0714 10.0404 25.1357L11.5453 26.1V18.9643C11.5453 18.45 11.0664 18 10.5192 18H2.3111ZM20.7794 9.64286C20.711 9.64286 20.6426 9.64286 20.6426 9.57857C20.5058 9.51429 20.4374 9.38571 20.4374 9.32143V1.60714C20.4374 0.707143 21.1898 0 22.1474 0H31.7236C32.6812 0 33.4336 0.707143 33.4336 1.60714V6.75C33.4336 7.65 32.6812 8.35714 31.7236 8.35714H22.9682L20.9846 9.57857C20.9162 9.64286 20.8478 9.64286 20.7794 9.64286ZM22.1474 0.642857C21.6002 0.642857 21.1214 1.09286 21.1214 1.60714V8.74286L22.6262 7.77857C22.6946 7.71429 22.763 7.71429 22.8314 7.71429H31.7236C32.2708 7.71429 32.7496 7.26429 32.7496 6.75V1.60714C32.7496 1.09286 32.2708 0.642857 31.7236 0.642857H22.1474Z"
      fill="#CAFF33"
    />
    <path
      d="M18.2726 18C18.2059 18 18.1392 18 18.0725 17.9417L14.8717 15.6667H3.6019C1.93477 15.6667 0.601074 14.5 0.601074 13.0417V6.625C0.601074 5.16667 1.93477 4 3.6019 4H15.6052C17.2723 4 18.606 5.16667 18.606 6.625V17.7083C18.606 17.825 18.5393 17.9417 18.406 18H18.2726ZM3.6019 4.58333C2.33488 4.58333 1.26792 5.51667 1.26792 6.625V13.0417C1.26792 14.15 2.33488 15.0833 3.6019 15.0833H15.005C15.0717 15.0833 15.1384 15.0833 15.2051 15.1417L17.9392 17.0667V6.625C17.9392 5.51667 16.8722 4.58333 15.6052 4.58333H3.6019Z"
      fill="#CAFF33"
    />
    <path
      d="M15.3734 12.8974H4.42927C4.22406 12.8974 4.08726 12.7692 4.08726 12.5769C4.08726 12.3846 4.22406 12.2564 4.42927 12.2564H15.3734C15.5787 12.2564 15.7155 12.3846 15.7155 12.5769C15.7155 12.7692 15.5787 12.8974 15.3734 12.8974ZM15.3734 10.9744H4.42927C4.22406 10.9744 4.08726 10.8462 4.08726 10.6538C4.08726 10.4615 4.22406 10.3333 4.42927 10.3333H15.3734C15.5787 10.3333 15.7155 10.4615 15.7155 10.6538C15.7155 10.8462 15.5787 10.9744 15.3734 10.9744ZM15.3734 9.05128H4.42927C4.22406 9.05128 4.08726 8.92308 4.08726 8.73077C4.08726 8.53846 4.22406 8.41026 4.42927 8.41026H15.3734C15.5787 8.41026 15.7155 8.53846 15.7155 8.73077C15.7155 8.92308 15.5787 9.05128 15.3734 9.05128ZM15.3734 7.12821H4.42927C4.22406 7.12821 4.08726 7 4.08726 6.80769C4.08726 6.61538 4.22406 6.48718 4.42927 6.48718H15.3734C15.5787 6.48718 15.7155 6.61538 15.7155 6.80769C15.7155 7 15.5787 7.12821 15.3734 7.12821ZM35.2098 17.3846H25.6336C25.4284 17.3846 25.2916 17.2564 25.2916 17.0641C25.2916 16.8718 25.4284 16.7436 25.6336 16.7436H35.2098C35.415 16.7436 35.5518 16.8718 35.5518 17.0641C35.5518 17.2564 35.415 17.3846 35.2098 17.3846ZM35.2098 15.4615H25.6336C25.4284 15.4615 25.2916 15.3333 25.2916 15.141C25.2916 14.9487 25.4284 14.8205 25.6336 14.8205H35.2098C35.415 14.8205 35.5518 14.9487 35.5518 15.141C35.5518 15.3333 35.415 15.4615 35.2098 15.4615ZM35.2098 13.5385H25.6336C25.4284 13.5385 25.2916 13.4103 25.2916 13.2179C25.2916 13.0256 25.4284 12.8974 25.6336 12.8974H35.2098C35.415 12.8974 35.5518 13.0256 35.5518 13.2179C35.5518 13.4103 35.415 13.5385 35.2098 13.5385ZM31.1057 4.5641H22.8976C22.6924 4.5641 22.5556 4.4359 22.5556 4.24359C22.5556 4.05128 22.6924 3.92308 22.8976 3.92308H31.1057C31.3109 3.92308 31.4477 4.05128 31.4477 4.24359C31.4477 4.4359 31.3109 4.5641 31.1057 4.5641ZM31.1057 6.48718H22.8976C22.6924 6.48718 22.5556 6.35897 22.5556 6.16667C22.5556 5.97436 22.6924 5.84615 22.8976 5.84615H31.1057C31.3109 5.84615 31.4477 5.97436 31.4477 6.16667C31.4477 6.35897 31.3109 6.48718 31.1057 6.48718ZM31.1057 2.64103H22.8976C22.6924 2.64103 22.5556 2.51282 22.5556 2.32051C22.5556 2.12821 22.6924 2 22.8976 2H31.1057C31.3109 2 31.4477 2.12821 31.4477 2.32051C31.4477 2.51282 31.3109 2.64103 31.1057 2.64103ZM9.90136 23.7949H3.06124C2.85604 23.7949 2.71924 23.6667 2.71924 23.4744C2.71924 23.2821 2.85604 23.1538 3.06124 23.1538H9.90136C10.1066 23.1538 10.2434 23.2821 10.2434 23.4744C10.2434 23.6667 10.1066 23.7949 9.90136 23.7949ZM9.90136 21.8718H3.06124C2.85604 21.8718 2.71924 21.7436 2.71924 21.5513C2.71924 21.359 2.85604 21.2308 3.06124 21.2308H9.90136C10.1066 21.2308 10.2434 21.359 10.2434 21.5513C10.2434 21.7436 10.1066 21.8718 9.90136 21.8718ZM9.90136 19.9487H3.06124C2.85604 19.9487 2.71924 19.8205 2.71924 19.6282C2.71924 19.4359 2.85604 19.3077 3.06124 19.3077H9.90136C10.1066 19.3077 10.2434 19.4359 10.2434 19.6282C10.2434 19.8205 10.1066 19.9487 9.90136 19.9487ZM31.1057 27H27.0016C26.7964 27 26.6596 26.8718 26.6596 26.6795C26.6596 26.4872 26.7964 26.359 27.0016 26.359H31.1057C31.3109 26.359 31.4477 26.4872 31.4477 26.6795C31.4477 26.8718 31.3109 27 31.1057 27ZM31.1057 25.0769H27.0016C26.7964 25.0769 26.6596 24.9487 26.6596 24.7564C26.6596 24.5641 26.7964 24.4359 27.0016 24.4359H31.1057C31.3109 24.4359 31.4477 24.5641 31.4477 24.7564C31.4477 24.9487 31.3109 25.0769 31.1057 25.0769ZM16.0575 23.7949H15.9207C15.8523 23.7949 15.8523 23.7308 15.7839 23.7308C15.7839 23.7308 15.7155 23.6667 15.7155 23.6026V23.4744V23.3462C15.7155 23.2821 15.7839 23.2821 15.7839 23.2179C15.7839 23.2179 15.8523 23.1538 15.9207 23.1538C15.9891 23.0897 16.1259 23.1538 16.1943 23.1538C16.2627 23.1538 16.2627 23.2179 16.3311 23.2179C16.3311 23.2179 16.3995 23.2821 16.3995 23.3462V23.6026C16.3995 23.6667 16.3311 23.6667 16.3311 23.7308C16.3311 23.7308 16.2627 23.7949 16.1943 23.7949H16.0575ZM16.0575 25.7179H15.9207C15.8523 25.7179 15.8523 25.6538 15.7839 25.6538C15.7839 25.6538 15.7155 25.5897 15.7155 25.5256V25.3974V25.2692C15.7155 25.2051 15.7839 25.2051 15.7839 25.141C15.7839 25.141 15.8523 25.0769 15.9207 25.0769C15.9891 25.0769 16.1259 25.0128 16.1943 25.0769C16.2627 25.0769 16.2627 25.141 16.3311 25.141C16.3995 25.2051 16.4679 25.2692 16.4679 25.3974V25.5256C16.4679 25.5897 16.3995 25.5897 16.3995 25.6538C16.2627 25.718 16.1259 25.7179 16.0575 25.7179Z"
      fill="#CAFF33"
    />
    <path
      d="M21.0845 23H20.9404C20.7964 22.9381 20.7244 22.8143 20.7244 22.6905V12.7857C20.7244 11.2381 22.1648 10 23.9653 10H35.4884C37.2889 10 38.7293 11.2381 38.7293 12.7857V17.7381C38.7293 19.2857 37.2889 20.5238 35.4884 20.5238H24.7575L21.3725 22.9381C21.2285 23 21.1565 23 21.0845 23ZM23.9653 10.619C22.5969 10.619 21.4446 11.6095 21.4446 12.7857V22.0095L24.3974 19.9667C24.4694 19.9048 24.5414 19.9048 24.6134 19.9048H35.4884C36.8568 19.9048 38.0091 18.9143 38.0091 17.7381V12.7857C38.0091 11.6095 36.8568 10.619 35.4884 10.619H23.9653Z"
      fill="#CAFF33"
    />
    <path
      d="M24.7599 30C24.6905 30 24.6212 30 24.6212 29.9429C24.4824 29.8857 24.413 29.7714 24.413 29.7143V24.5714C24.413 23.7714 25.1763 23.1429 26.1477 23.1429H31.699C32.6704 23.1429 33.4337 23.7714 33.4337 24.5714V27.4286C33.4337 28.2286 32.6704 28.8571 31.699 28.8571H26.9804L24.9681 29.9429C24.8987 30 24.8293 30 24.7599 30ZM26.1477 23.7143C25.5926 23.7143 25.1069 24.1143 25.1069 24.5714V29.2L26.6335 28.3429C26.7029 28.2857 26.7723 28.2857 26.8416 28.2857H31.699C32.2541 28.2857 32.7398 27.8857 32.7398 27.4286V24.5714C32.7398 24.1143 32.2541 23.7143 31.699 23.7143H26.1477ZM19.9026 28.8571C19.8332 28.8571 19.7638 28.8571 19.6945 28.8L18.0291 27.7143H15.0453C14.0738 27.7143 13.3105 27.0857 13.3105 26.2857V23.4286C13.3105 22.6286 14.0738 22 15.0453 22H18.5148C19.4863 22 20.2496 22.6286 20.2496 23.4286V28.5714C20.2496 28.6857 20.1802 28.8 20.0414 28.8571H19.9026ZM15.0453 22.5714C14.4902 22.5714 14.0044 22.9714 14.0044 23.4286V26.2857C14.0044 26.7429 14.4902 27.1429 15.0453 27.1429H18.1679C18.2373 27.1429 18.3066 27.1429 18.376 27.2L19.5557 27.9429V23.3714C19.5557 22.9143 19.0699 22.5143 18.5148 22.5143H15.0453V22.5714Z"
      fill="#CAFF33"
    />
    <path
      d="M17.8998 25H17.7233C17.6175 25 17.5469 24.9 17.5469 24.75C17.5469 24.6 17.6175 24.5 17.7233 24.5H17.8998C18.1115 24.5 18.2526 24.3 18.2526 24C18.2526 23.7 18.1115 23.5 17.8998 23.5H17.7233C17.6175 23.5 17.5469 23.4 17.5469 23.25C17.5469 23.1 17.6175 23 17.7233 23H17.8998C18.2879 23 18.6055 23.45 18.6055 24C18.6055 24.55 18.2879 25 17.8998 25Z"
      fill="#CAFF33"
    />
  </svg>