<svg width="18" height="18" viewBox="0 0 18 18" fill="none" xmlns="http://www.w3.org/2000/svg">
<path id="Vector" d="M9.003 18C7.759 18 6.589 17.764 5.493 17.292C4.39767 16.8193 3.44467 16.178 2.634 15.368C1.82333 14.558 1.18167 13.606 0.709 12.512C0.236333 11.418 0 10.2483 0 9.003C0 7.75767 0.236 6.58767 0.708 5.493C1.18 4.39833 1.82133 3.44533 2.632 2.634C3.44267 1.82267 4.39467 1.181 5.488 0.709002C6.58133 0.237002 7.751 0.000668075 8.997 1.40845e-06C10.243 -0.000665258 11.413 0.235335 12.507 0.708001C13.601 1.18067 14.554 1.822 15.366 2.632C16.178 3.442 16.8197 4.394 17.291 5.488C17.7623 6.582 17.9987 7.75167 18 8.997C18.0013 10.2423 17.7653 11.4123 17.292 12.507C16.8187 13.6017 16.1773 14.5547 15.368 15.366C14.5587 16.1773 13.6067 16.819 12.512 17.291C11.4173 17.763 10.2477 17.9993 9.003 18ZM9 17C11.2333 17 13.125 16.225 14.675 14.675C16.225 13.125 17 11.2333 17 9C17 8.88333 16.999 8.76567 16.997 8.647C16.995 8.52833 16.9877 8.41467 16.975 8.306C16.9303 8.75067 16.7537 9.11867 16.445 9.41C16.1357 9.70067 15.7567 9.846 15.308 9.846H12.769C12.3037 9.846 11.9053 9.68067 11.574 9.35C11.2427 9.01933 11.077 8.62133 11.077 8.156V7.312H7.692V5.622C7.692 5.15733 7.85767 4.758 8.189 4.424C8.521 4.09067 8.91967 3.924 9.385 3.924H10.231V3.154C10.231 2.668 10.3897 2.28567 10.707 2.007C11.0243 1.72833 11.4033 1.56767 11.844 1.525C11.3953 1.35167 10.9353 1.221 10.464 1.133C9.99267 1.045 9.50467 1.00067 9 1C6.76667 1 4.875 1.775 3.325 3.325C1.775 4.875 1 6.76667 1 9V9.288C1 9.378 1.00667 9.47433 1.02 9.577H5.5C6.44667 9.577 7.24733 9.90467 7.902 10.56C8.55667 11.2153 8.88433 12.013 8.885 12.953V13.808H6.346V16.538C6.75667 16.686 7.18533 16.8 7.632 16.88C8.07867 16.96 8.53467 17 9 17Z" fill="black"/>
</svg>
