<svg width="75" height="75" viewBox="0 0 75 75" fill="none" xmlns="http://www.w3.org/2000/svg">
<g id="Intersect">
<path id="Vector" d="M50.6655 24.096C49.8995 19.97 48.0208 16.1317 45.2325 12.9954C42.4443 9.85921 38.8522 7.54422 34.8443 6.30043C30.8363 5.05665 26.5648 4.93132 22.4908 5.93799C18.4168 6.94466 14.6953 9.04507 11.7279 12.0124C8.76053 14.9798 6.66011 18.7014 5.65344 22.7754C4.64677 26.8493 4.7721 31.1209 6.01589 35.1288C7.25967 39.1368 9.57466 42.7288 12.7109 45.5171C15.8471 48.3054 19.6855 50.184 23.8114 50.9501C24.5775 55.0761 26.4561 58.9144 29.2444 62.0506C32.0327 65.1869 35.6248 67.5019 39.6327 68.7456C43.6406 69.9894 47.9122 70.1147 51.9862 69.1081C56.0601 68.1014 59.7817 66.001 62.7491 63.0336C65.7165 60.0663 67.8169 56.3447 68.8235 52.2707C69.8302 48.1967 69.7049 43.9252 68.4611 39.9172C67.2173 35.9093 64.9023 32.3173 61.7661 29.529C58.6298 26.7407 54.7915 24.8621 50.6655 24.096ZM29.3746 39.8266L34.9349 45.3869C32.7406 46.2807 30.3935 46.7394 28.0241 46.7374C28.0221 44.3681 28.4808 42.0209 29.3746 39.8266ZM39.0929 43.0315L31.73 35.6686C32.7723 34.2867 34.0021 33.0568 35.3841 32.0146L42.747 39.3774C41.7047 40.7594 40.4749 41.9893 39.0929 43.0315ZM45.1024 35.2194L39.5421 29.6592C41.7364 28.7654 44.0835 28.3067 46.4529 28.3087C46.4548 30.678 45.9962 33.0252 45.1024 35.2194ZM9.59541 28.3087C9.58657 23.8169 11.2185 19.4765 14.1846 16.1033C17.1507 12.7301 21.2466 10.5563 25.7026 9.99049C30.1586 9.42464 34.6678 10.5057 38.3828 13.0305C42.0979 15.5554 44.7629 19.3501 45.877 23.7015C39.9705 23.8567 34.349 26.2733 30.1724 30.4526C25.9957 34.6319 23.5828 40.2549 23.4313 46.1615C19.474 45.1375 15.9684 42.829 13.4644 39.598C10.9604 36.3671 9.59961 32.3964 9.59541 28.3087ZM46.4529 65.1661C42.3671 65.1628 38.3978 63.804 35.1671 61.3028C31.9364 58.8016 29.6267 55.2993 28.6 51.3446C34.509 51.193 40.1341 48.778 44.3138 44.5984C48.4935 40.4187 50.9084 34.7936 51.06 28.8846C55.4114 29.9987 59.2062 32.6637 61.731 36.3787C64.2558 40.0937 65.3369 44.6029 64.771 49.0589C64.2052 53.5149 62.0314 57.6109 58.6582 60.5769C55.285 63.543 50.9446 65.175 46.4529 65.1661Z" fill="#CAFF33"/>
</g>
</svg>
