<svg width="22" height="22" viewBox="0 0 22 22" fill="none" xmlns="http://www.w3.org/2000/svg">
<g id="Linkedin">
<path id="Back" d="M0 11C0 4.92487 4.92487 0 11 0C17.0751 0 22 4.92487 22 11C22 17.0751 17.0751 22 11 22C4.92487 22 0 17.0751 0 11Z" fill="black"/>
<path id="Union" fill-rule="evenodd" clip-rule="evenodd" d="M7.93773 6.79374C7.93773 7.51291 7.39639 8.08837 6.52718 8.08837H6.51125C5.67434 8.08837 5.1333 7.51291 5.1333 6.79374C5.1333 6.05935 5.69082 5.5 6.54361 5.5C7.39639 5.5 7.92155 6.05935 7.93773 6.79374ZM7.77352 9.11072V16.6007H5.28068V9.11072H7.77352ZM16.7636 16.6006L16.7637 12.3061C16.7637 10.0055 15.5339 8.93481 13.8935 8.93481C12.5699 8.93481 11.9774 9.66179 11.6465 10.1718V9.11089H9.15337C9.18623 9.81371 9.15337 16.6008 9.15337 16.6008H11.6465V12.4178C11.6465 12.194 11.6627 11.9707 11.7286 11.8104C11.9088 11.3632 12.319 10.9002 13.0077 10.9002C13.9101 10.9002 14.2708 11.587 14.2708 12.5935V16.6006H16.7636Z" fill="white"/>
</g>
</svg>
