<svg width="23" height="23" viewBox="0 0 23 23" fill="none" xmlns="http://www.w3.org/2000/svg">
<g id="Linkedin">
<path id="Subtract" fill-rule="evenodd" clip-rule="evenodd" d="M11.5 0C5.14873 0 0 5.14873 0 11.5C0 17.8513 5.14873 23 11.5 23C17.8513 23 23 17.8513 23 11.5C23 5.14873 17.8513 0 11.5 0ZM5.52075 9.52484H8.1269V17.3552H5.52075V9.52484ZM8.29861 7.10254C8.28169 6.33478 7.73266 5.75 6.84111 5.75C5.94956 5.75 5.3667 6.33478 5.3667 7.10254C5.3667 7.85441 5.93233 8.45602 6.80728 8.45602H6.82394C7.73266 8.45602 8.29861 7.85441 8.29861 7.10254ZM14.525 9.34094C16.24 9.34094 17.5257 10.4603 17.5257 12.8655L17.5256 17.3552H14.9195V13.1659C14.9195 12.1137 14.5424 11.3957 13.599 11.3957C12.879 11.3957 12.4501 11.8797 12.2617 12.3473C12.1928 12.5148 12.1759 12.7483 12.1759 12.9823V17.3554H9.56946C9.56946 17.3554 9.60381 10.2598 9.56946 9.52502H12.1759V10.6341C12.5218 10.101 13.1413 9.34094 14.525 9.34094Z" fill="black"/>
</g>
</svg>
