<svg width="23" height="23" viewBox="0 0 23 23" fill="none" xmlns="http://www.w3.org/2000/svg">
<g id="Mail">
<path id="Subtract" fill-rule="evenodd" clip-rule="evenodd" d="M11.5 23C5.14873 23 0 17.8513 0 11.5C0 5.14873 5.14873 0 11.5 0C17.8513 0 23 5.14873 23 11.5C23 17.8513 17.8513 23 11.5 23ZM11.4998 11.0208C10.5652 11.0208 5.75 8.15856 5.75 8.15856V7.7116C5.75 7.1578 6.17878 6.70833 6.70805 6.70833H16.2915C16.8212 6.70833 17.25 7.1578 17.25 7.7116L17.2423 8.21324C17.2423 8.21324 12.4794 11.0208 11.4998 11.0208ZM17.2423 9.58333C17.2423 9.58333 12.5243 12.1454 11.4998 12.1454C10.5652 12.1454 5.75718 9.58333 5.75766 9.58333L5.75 15.3333C5.75 15.8623 6.17926 16.2917 6.70805 16.2917H16.2915C16.8212 16.2917 17.25 15.8623 17.25 15.3333L17.2423 9.58333Z" fill="black"/>
</g>
</svg>
