<svg width="23" height="23" viewBox="0 0 23 23" fill="none" xmlns="http://www.w3.org/2000/svg">
<g id="Mail">
<path id="Back" d="M11.5 23C17.8513 23 23 17.8513 23 11.5C23 5.14873 17.8513 0 11.5 0C5.14873 0 0 5.14873 0 11.5C0 17.8513 5.14873 23 11.5 23Z" fill="black"/>
<path id="Union" fill-rule="evenodd" clip-rule="evenodd" d="M5.74963 8.1586C5.74963 8.1586 10.5648 11.0209 11.4994 11.0209C12.479 11.0209 17.242 8.21328 17.242 8.21328L17.2496 7.71164C17.2496 7.15784 16.8209 6.70837 16.2911 6.70837H6.70769C6.17841 6.70837 5.74963 7.15784 5.74963 7.71164V8.1586ZM17.242 9.58339C17.242 9.58339 12.524 12.1454 11.4994 12.1454C10.5648 12.1454 5.75683 9.58339 5.75731 9.58339L5.74965 15.3334C5.74965 15.8624 6.17891 16.2917 6.7077 16.2917H16.2911C16.8209 16.2917 17.2497 15.8624 17.2497 15.3334L17.242 9.58339Z" fill="white"/>
</g>
</svg>
