<svg width="22" height="22" viewBox="0 0 22 22" fill="none" xmlns="http://www.w3.org/2000/svg">
<g id="Phone">
<path id="Vector" d="M19.1099 13.6178L15.0614 11.8037L15.0502 11.7986C14.8401 11.7087 14.6108 11.6726 14.3832 11.6936C14.1555 11.7146 13.9367 11.792 13.7466 11.9189C13.7242 11.9337 13.7027 11.9497 13.6821 11.967L11.5904 13.7502C10.2652 13.1065 8.89712 11.7487 8.25345 10.4407L10.0392 8.31722C10.0564 8.29574 10.0727 8.27426 10.0882 8.25105C10.2123 8.06139 10.2876 7.84398 10.3074 7.61819C10.3272 7.39239 10.2909 7.16519 10.2016 6.95683V6.94652L8.38235 2.89113C8.26439 2.61894 8.06157 2.39219 7.80415 2.24474C7.54674 2.09729 7.24854 2.03705 6.95407 2.073C5.78959 2.22624 4.72071 2.79812 3.94706 3.68184C3.17341 4.56556 2.7479 5.70068 2.75001 6.87519C2.75001 13.6986 8.30157 19.2502 15.125 19.2502C16.2995 19.2523 17.4346 18.8268 18.3184 18.0531C19.2021 17.2795 19.774 16.2106 19.9272 15.0461C19.9632 14.7518 19.9031 14.4536 19.7558 14.1962C19.6085 13.9388 19.382 13.7359 19.1099 13.6178ZM15.125 17.8752C12.2086 17.872 9.41256 16.7121 7.35035 14.6498C5.28814 12.5876 4.12819 9.7916 4.12501 6.87519C4.12177 6.036 4.42411 5.22433 4.97556 4.59175C5.52701 3.95918 6.28986 3.54895 7.12165 3.43769C7.12131 3.44112 7.12131 3.44458 7.12165 3.448L8.92634 7.48707L7.15001 9.61316C7.13198 9.63391 7.1156 9.65603 7.10102 9.67933C6.9717 9.87778 6.89583 10.1063 6.88078 10.3427C6.86572 10.579 6.91199 10.8153 7.01509 11.0286C7.79368 12.621 9.39813 14.2134 11.0077 14.9911C11.2226 15.0933 11.4602 15.1379 11.6974 15.1208C11.9347 15.1036 12.1634 15.0252 12.3613 14.8932C12.3833 14.8783 12.4046 14.8622 12.4249 14.845L14.514 13.0627L18.5531 14.8717C18.5531 14.8717 18.5599 14.8717 18.5625 14.8717C18.4526 15.7046 18.043 16.469 17.4103 17.0218C16.7776 17.5747 15.9652 17.878 15.125 17.8752Z" fill="#343330"/>
</g>
</svg>
