<svg width="81" height="81" viewBox="0 0 81 81" fill="none" xmlns="http://www.w3.org/2000/svg">
<g id="Plug">
<path id="Vector" d="M75.1484 20.7953C74.9155 20.5621 74.6389 20.3772 74.3345 20.251C74.03 20.1248 73.7037 20.0598 73.3742 20.0598C73.0446 20.0598 72.7183 20.1248 72.4139 20.251C72.1094 20.3772 71.8329 20.5621 71.6 20.7953L60.8356 31.5628L49.3347 20.0618L60.1021 9.29746C60.5727 8.82692 60.837 8.18872 60.837 7.52326C60.837 6.85781 60.5727 6.21961 60.1021 5.74906C59.6316 5.27851 58.9934 5.01416 58.3279 5.01416C57.6625 5.01416 57.0243 5.27851 56.5537 5.74906L45.7894 16.5165L37.5328 8.25676C37.0622 7.78622 36.424 7.52187 35.7586 7.52187C35.0931 7.52187 34.4549 7.78622 33.9844 8.25676C33.5138 8.72731 33.2495 9.36551 33.2495 10.031C33.2495 10.6964 33.5138 11.3346 33.9844 11.8052L35.9749 13.7925L19.3613 30.4061C18.1969 31.5704 17.2733 32.9527 16.6431 34.4739C16.013 35.9952 15.6886 37.6257 15.6886 39.2724C15.6886 40.919 16.013 42.5495 16.6431 44.0708C17.2733 45.5921 18.1969 46.9744 19.3613 48.1387L24.2858 53.0632L8.90732 68.4417C8.67433 68.6747 8.48951 68.9513 8.36342 69.2557C8.23732 69.5601 8.17242 69.8864 8.17242 70.2159C8.17242 70.5454 8.23732 70.8717 8.36342 71.1761C8.48951 71.4805 8.67433 71.7571 8.90732 71.9901C9.37787 72.4607 10.0161 72.725 10.6815 72.725C11.011 72.725 11.3373 72.6601 11.6417 72.534C11.9461 72.4079 12.2227 72.2231 12.4557 71.9901L27.8436 56.6022L32.7681 61.5267C33.9325 62.6911 35.3147 63.6147 36.836 64.2449C38.3573 64.875 39.9878 65.1994 41.6344 65.1994C43.2811 65.1994 44.9116 64.875 46.4329 64.2449C47.9542 63.6147 49.3364 62.6911 50.5008 61.5267L67.1143 44.9132L69.1017 46.9037C69.3347 47.1366 69.6113 47.3215 69.9157 47.4476C70.2201 47.5736 70.5464 47.6385 70.8759 47.6385C71.2054 47.6385 71.5316 47.5736 71.8361 47.4476C72.1405 47.3215 72.4171 47.1366 72.6501 46.9037C72.8831 46.6707 73.0679 46.3941 73.194 46.0896C73.3201 45.7852 73.385 45.4589 73.385 45.1294C73.385 44.7999 73.3201 44.4737 73.194 44.1693C73.0679 43.8648 72.8831 43.5882 72.6501 43.3552L64.3809 35.108L75.1484 24.3437C75.3815 24.1108 75.5665 23.8342 75.6927 23.5298C75.8189 23.2254 75.8839 22.899 75.8839 22.5695C75.8839 22.2399 75.8189 21.9136 75.6927 21.6092C75.5665 21.3048 75.3815 21.0282 75.1484 20.7953ZM46.9555 57.9908C46.2569 58.6898 45.4273 59.2443 44.5143 59.6227C43.6013 60.001 42.6227 60.1957 41.6344 60.1957C40.6462 60.1957 39.6676 60.001 38.7546 59.6227C37.8416 59.2443 37.0121 58.6898 36.3134 57.9908L22.9066 44.584C22.2076 43.8854 21.6531 43.0559 21.2748 42.1429C20.8965 41.2299 20.7017 40.2513 20.7017 39.263C20.7017 38.2747 20.8965 37.2961 21.2748 36.3831C21.6531 35.4701 22.2076 34.6406 22.9066 33.9419L39.5201 17.3284L63.5596 41.3773L46.9555 57.9908Z" fill="#CAFF33"/>
</g>
</svg>
